
❌ FFMPEG ERROR: Process exited with code 4294967274
--- FFMPEG LOGS START ---
ffmpeg version N-124300-gdba0b078c8-20260502 Copyright (c) 2000-2026 the FFmpeg developers
  built with gcc 15.2.0 (crosstool-NG 1.28.0.23_185f348)
  configuration: --prefix=/ffbuild/prefix --pkg-config-flags=--static --pkg-config=pkg-config --cross-prefix=x86_64-w64-mingw32- --arch=x86_64 --target-os=mingw32 --enable-gpl --enable-version3 --disable-debug --enable-shared --disable-static --disable-w32threads --enable-pthreads --enable-iconv --enable-zlib --enable-libxml2 --enable-libvmaf --enable-fontconfig --enable-libharfbuzz --enable-libfreetype --enable-libfribidi --enable-vulkan --enable-libshaderc --enable-libvorbis --disable-libxcb --disable-xlib --disable-libpulse --enable-opencl --enable-gmp --enable-lzma --enable-liblcevc-dec --enable-amf --enable-libaom --enable-libaribb24 --enable-avisynth --enable-chromaprint --enable-libdav1d --enable-libdavs2 --enable-libdvdread --enable-libdvdnav --disable-libfdk-aac --enable-ffnvcodec --enable-cuda-llvm --enable-frei0r --enable-libgme --enable-libkvazaar --enable-libaribcaption --enable-libass --enable-libbluray --enable-libjxl --enable-libmp3lame --enable-libopus --enable-libplacebo --enable-librist --enable-libssh --enable-libtheora --enable-libvpx --enable-libwebp --enable-libzmq --enable-lv2 --enable-libvpl --enable-openal --enable-liboapv --enable-libopencore-amrnb --enable-libopencore-amrwb --enable-libopenh264 --enable-libopenjpeg --enable-libopenmpt --enable-librav1e --enable-librubberband --enable-schannel --enable-sdl2 --enable-libsnappy --enable-libsoxr --enable-libsrt --enable-libsvtav1 --enable-libtwolame --enable-libuavs3d --disable-libdrm --enable-vaapi --enable-libvidstab --enable-libvvenc --enable-whisper --enable-libx264 --enable-libx265 --enable-libxavs2 --enable-libxvid --enable-libzimg --enable-libzvbi --extra-cflags=-DLIBTWOLAME_STATIC --extra-cxxflags= --extra-libs=-lgomp --extra-ldflags=-pthread --extra-ldexeflags= --cc=x86_64-w64-mingw32-gcc --cxx=x86_64-w64-mingw32-g++ --ar=x86_64-w64-mingw32-gcc-ar --ranlib=x86_64-w64-mingw32-gcc-ranlib --nm=x86_64-w64-mingw32-gcc-nm --extra-version=20260502
  libavutil      60. 30.100 / 60. 30.100
  libavcodec     62. 30.100 / 62. 30.100
  libavformat    62. 13.102 / 62. 13.102
  libavdevice    62.  4.100 / 62.  4.100
  libavfilter    11. 17.100 / 11. 17.100
  libswscale      9.  7.100 /  9.  7.100
  libswresample   6.  4.100 /  6.  4.100
Input #0, mov,mp4,m4a,3gp,3g2,mj2, from 'E:\Excel (Desktop)\EXCEL WORK OF ST\ASSIGNEMENT\StoryWeaver Audio Studio Website\AI Video Watermark Remover\server\uploads\input-502761802666f48f.mp4':
  Metadata:
    major_brand     : isom
    minor_version   : 512
    compatible_brands: isomiso2avc1mp41
    encoder         : Lavf62.13.102
  Duration: 00:00:07.79, start: 0.000000, bitrate: 3062 kb/s
  Stream #0:0[0x1](und): Video: h264 (High) (avc1 / 0x31637661), yuv420p(progressive), 1920x1080, 2915 kb/s, 24 fps, 24 tbr, 12288 tbn (default)
    Metadata:
      handler_name    : VideoHandler
      encoder         : Lavc62.30.100 libx264
  Stream #0:1[0x2](und): Audio: aac (LC) (mp4a / 0x6134706D), 48000 Hz, stereo, fltp, 139 kb/s (default)
    Metadata:
      handler_name    : SoundHandler
Stream mapping:
  Stream #0:0 -> #0:0 (h264 (native) -> h264 (libx264))
  Stream #0:1 -> #0:1 (copy)
Press [q] to stop, [?] for help
[Parsed_delogo_0 @ 00000217a63a7580] Logo area is outside of the frame.
[Parsed_delogo_0 @ 00000217a63a7580] Failed to configure input pad on Parsed_delogo_0
[vf#0:0 @ 00000217a849b040] Error reinitializing filters!
[vf#0:0 @ 00000217a849b040] Task finished with error code: -22 (Invalid argument)
[vf#0:0 @ 00000217a849b040] Terminating thread with return code -22 (Invalid argument)
[vost#0:0/libx264 @ 00000217a821e640] [enc:libx264 @ 00000217a814ad00] Could not open encoder before EOF
[vost#0:0/libx264 @ 00000217a821e640] Task finished with error code: -22 (Invalid argument)
[vost#0:0/libx264 @ 00000217a821e640] Terminating thread with return code -22 (Invalid argument)
[out#0/mp4 @ 00000217a63a7480] Nothing was written into output file, because at least one of its streams received no packets.
frame=    0 fps=0.0 q=0.0 Lsize=       0KiB time=00:00:00.42 bitrate=   0.0kbits/s speed=7.91x elapsed=0:00:00.05    
Conversion failed!

--- FFMPEG LOGS END ---
